<?xml version="1.0" encoding="UTF-8"?>
<svg version="1.1" xmlns="http://www.w3.org/2000/svg" width="1640" height="572">
<path d="M0 0 C312.84 0 625.68 0 948 0 C948 16.17 948 32.34 948 49 C635.16 49 322.32 49 0 49 C0 32.83 0 16.66 0 0 Z " fill="#085E54" transform="translate(519,343)"/>
<path d="M0 0 C1.27617188 1.14275391 1.27617188 1.14275391 2.578125 2.30859375 C3.30805664 2.95030518 3.30805664 2.95030518 4.05273438 3.60498047 C34.42893873 30.33334533 54.5208925 66.78546503 58.578125 107.30859375 C60.420933 146.57946765 53.78514955 183.70780197 30.578125 216.30859375 C30.17787109 216.8711084 29.77761719 217.43362305 29.36523438 218.01318359 C14.12047692 239.073756 -5.35396574 255.47264232 -28.421875 267.30859375 C-29.03353516 267.62666992 -29.64519531 267.94474609 -30.27539062 268.27246094 C-52.84148266 279.87060813 -77.05952753 284.53773264 -102.296875 284.55859375 C-103.03108673 284.55926849 -103.76529846 284.55994324 -104.52175903 284.56063843 C-116.06172616 284.54381746 -127.15722857 283.95461637 -138.421875 281.30859375 C-139.1422998 281.14762207 -139.86272461 280.98665039 -140.60498047 280.82080078 C-151.01059999 278.43746747 -160.63294551 274.76091426 -170.34326172 270.34326172 C-171.17873535 269.96572754 -172.01420898 269.58819336 -172.875 269.19921875 C-173.60879883 268.85922852 -174.34259766 268.51923828 -175.09863281 268.16894531 C-180.75995957 266.07242204 -184.60293073 266.32691908 -190.31005859 268.21459961 C-190.97108078 268.42903214 -191.63210297 268.64346466 -192.31315613 268.86439514 C-193.74079159 269.3294167 -195.16644575 269.80055671 -196.59025192 270.277174 C-198.84897579 271.03302933 -201.1125681 271.7722288 -203.37808228 272.50746155 C-208.18926032 274.07220911 -212.9933259 275.65810893 -217.796875 277.24609375 C-223.35931509 279.08344824 -228.92443912 280.91191135 -234.49592972 282.72165108 C-236.71705101 283.44761479 -238.93310601 284.18773604 -241.14926147 284.92869568 C-242.52425604 285.3775332 -243.89945926 285.82573219 -245.27490234 286.27319336 C-247.05977554 286.86395912 -247.05977554 286.86395912 -248.88070679 287.46665955 C-252.98413947 288.44227554 -256.21576426 288.56383128 -260.421875 288.30859375 C-263.70289942 286.20537297 -264.29690999 284.87366684 -265.13766479 281.07189941 C-265.4472566 276.97250893 -264.87876286 274.5195646 -263.53173828 270.65820312 C-263.31891205 270.0344429 -263.10608582 269.41068268 -262.8868103 268.76802063 C-262.18584456 266.72435486 -261.46401629 264.68872327 -260.7421875 262.65234375 C-260.24840352 261.22232052 -259.75614882 259.7917684 -259.26535034 258.36071777 C-257.97330234 254.60404702 -256.66429315 250.85353187 -255.35046387 247.10443115 C-253.2509817 241.10625239 -251.1747596 235.10003432 -249.10369492 229.09199524 C-248.38046747 227.00319844 -247.64837291 224.91767482 -246.91506958 222.83239746 C-246.46672428 221.54134854 -246.01862203 220.25021517 -245.57080078 218.95898438 C-245.17917755 217.84092407 -244.78755432 216.72286377 -244.38406372 215.57092285 C-242.51414036 209.43740214 -242.51414036 209.43740214 -243.03930664 203.20727539 C-243.38340576 202.63356201 -243.72750488 202.05984863 -244.08203125 201.46875 C-244.46077393 200.80673584 -244.8395166 200.14472168 -245.22973633 199.46264648 C-245.85078247 198.42732788 -245.85078247 198.42732788 -246.484375 197.37109375 C-266.39036057 161.9796669 -268.99007286 118.57784795 -258.17236328 79.85644531 C-250.38507696 53.41919089 -236.65823541 30.95775159 -217.421875 11.30859375 C-216.73738281 10.57382813 -216.05289063 9.8390625 -215.34765625 9.08203125 C-160.90868895 -48.2101314 -59.20182594 -50.93899441 0 0 Z M-202.8828125 34.765625 C-227.71671814 61.03728307 -238.55201332 96.99837264 -237.55810547 132.56298828 C-236.29162325 158.08782526 -226.43015599 181.29617226 -212.421875 202.30859375 C-212.79891518 206.80294437 -214.18125627 210.80330925 -215.70703125 215.02734375 C-216.1597445 216.30199837 -216.61221101 217.57674065 -217.06445312 218.8515625 C-217.77420587 220.83415324 -218.48690898 222.81558647 -219.2043457 224.79541016 C-219.90099755 226.72404837 -220.58587676 228.65656687 -221.26953125 230.58984375 C-221.68211182 231.73517578 -222.09469238 232.88050781 -222.51977539 234.06054688 C-223.43328026 237.34965887 -223.72072551 239.91574362 -223.421875 243.30859375 C-221.57685615 245.83695292 -220.22851041 247.02630344 -217.27319336 248.06054688 C-213.3486574 248.40195697 -210.14435204 247.22710579 -206.48828125 245.96484375 C-204.93684973 245.45572681 -203.38541742 244.9466123 -201.83398438 244.4375 C-199.4059394 243.62446724 -196.97945758 242.80693337 -194.5534668 241.98779297 C-192.20190068 241.19829263 -189.84545928 240.42489579 -187.48828125 239.65234375 C-186.76935196 239.40343384 -186.05042267 239.15452393 -185.30970764 238.89807129 C-180.95572494 237.47546797 -177.85371909 237.08673401 -173.421875 238.30859375 C-170.94921875 239.65625 -170.94921875 239.65625 -168.359375 241.37109375 C-138.42627954 259.37540612 -101.58980095 262.11682459 -68.125 254.34765625 C-51.84885249 250.20317842 -35.80402252 242.43508449 -22.421875 232.30859375 C-21.51695312 231.62410156 -20.61203125 230.93960938 -19.6796875 230.234375 C9.89768027 206.89925623 27.75602337 174.43861382 32.328125 137.05859375 C32.43646875 135.47677501 32.51795856 133.89297656 32.578125 132.30859375 C32.6296875 131.26703125 32.68125 130.22546875 32.734375 129.15234375 C33.1764205 112.20726627 30.67423812 95.14470675 24.578125 79.30859375 C24.32546875 78.65197754 24.0728125 77.99536133 23.8125 77.31884766 C17.95853044 62.46511729 10.1309695 49.31636795 -0.421875 37.30859375 C-1.48341797 36.04789063 -1.48341797 36.04789063 -2.56640625 34.76171875 C-24.42211005 9.40122642 -57.7322423 -6.33847704 -90.890625 -9.23046875 C-134.58234695 -12.23169396 -172.29010007 4.22147243 -202.8828125 34.765625 Z " fill="#075E54" transform="translate(415.421875,157.69140625)"/>
<path d="M0 0 C5.30190861 2.84604618 8.21343865 6.38268616 10.31640625 11.95703125 C10.76569665 13.49811441 11.19791157 15.04423173 11.6171875 16.59375 C11.85775879 17.45444092 12.09833008 18.31513184 12.34619141 19.2019043 C16.81685482 35.73286571 20.26800843 52.55664702 23.9296875 69.28125 C24.67702148 69.15572754 25.42435547 69.03020508 26.19433594 68.90087891 C32.85119212 67.78650143 39.51169421 66.70179135 46.1796875 65.65625 C47.03175781 65.5221875 47.88382813 65.388125 48.76171875 65.25 C50.81763203 64.92659791 52.87364825 64.6038503 54.9296875 64.28125 C54.5996875 63.29125 54.2696875 62.30125 53.9296875 61.28125 C53.89014516 58.94825175 53.88567018 56.61416811 53.9296875 54.28125 C60.43994343 51.02612204 72.48828228 54.54686095 79.6171875 55.65625 C80.39513672 55.77000977 81.17308594 55.88376953 81.97460938 56.00097656 C84.93120731 56.48940133 87.44475513 56.98101045 90.01171875 58.5703125 C90.9296875 60.28125 90.9296875 60.28125 91.0234375 62.5703125 C89.40791173 66.57450852 86.62771546 68.83696305 83.4296875 71.65625 C82.79619385 72.22553223 82.1627002 72.79481445 81.51000977 73.38134766 C79.66217112 75.02924852 77.79857476 76.65730142 75.9296875 78.28125 C75.02089844 79.085625 74.11210937 79.89 73.17578125 80.71875 C67.68718849 85.32508166 67.68718849 85.32508166 64.296875 85.12890625 C61.9296875 84.28125 61.9296875 84.28125 60.1171875 81.34375 C58.9296875 78.28125 58.9296875 78.28125 58.9296875 76.28125 C55.03284305 78.38354808 51.13739213 80.48841539 47.2421875 82.59375 C46.13939453 83.18865234 45.03660156 83.78355469 43.90039062 84.39648438 C42.83369141 84.97333984 41.76699219 85.55019531 40.66796875 86.14453125 C39.68868408 86.67344971 38.70939941 87.20236816 37.70043945 87.74731445 C35.83925833 88.77769607 34.0037466 89.85573526 32.19604492 90.97729492 C29.9296875 92.28125 29.9296875 92.28125 27.9296875 92.28125 C28.25839844 93.87259766 28.25839844 93.87259766 28.59375 95.49609375 C28.91456054 97.07021108 29.23481723 98.64444133 29.5546875 100.21875 C29.7314502 101.08105225 29.90821289 101.94335449 30.09033203 102.83178711 C31.13364902 108.01063503 32.09870803 113.19524418 32.96194458 118.40678406 C33.44533038 121.32506684 33.94266853 124.24093333 34.43914795 127.15701294 C34.68015233 128.59875353 34.91408623 130.0416964 35.14044189 131.48580933 C37.32339086 145.38372973 41.80158203 154.85108295 52.05078125 164.578125 C53.9296875 167.28125 53.9296875 167.28125 53.71484375 171.109375 C53.32619141 172.67945313 53.32619141 172.67945313 52.9296875 174.28125 C37.62521443 180.81081439 19.30204443 186.13073102 2.9296875 180.28125 C-0.93337832 178.72651876 -4.19380508 177.1261923 -6.04101562 173.23803711 C-8.00573247 166.45458632 -8.76414047 159.87993196 -9.1953125 152.84375 C-9.27313965 151.71662598 -9.3509668 150.58950195 -9.43115234 149.42822266 C-10.08705049 139.71900496 -10.6252514 130.00232144 -11.0703125 120.28125 C-14.09542208 123.27696324 -17.11459125 126.27859805 -20.1328125 129.28125 C-20.98037109 130.12042969 -21.82792969 130.95960938 -22.70117188 131.82421875 C-27.14024429 136.24615189 -31.43628898 140.72180792 -35.51733398 145.4765625 C-37.80663468 148.13691633 -40.18853801 150.70332938 -42.5703125 153.28125 C-45.62390204 156.59120434 -48.64504725 159.91922073 -51.5703125 163.34375 C-67.36190459 181.45093612 -67.36190459 181.45093612 -76.5078125 182.78125 C-82.45343805 181.94677624 -87.14436564 179.92117388 -90.8828125 175.09375 C-94.57705086 169.20026607 -95.95833946 163.24026169 -96.93554688 156.39501953 C-99.41238635 139.6688475 -108.23330057 124.61883229 -119.6953125 112.28125 C-122.0703125 109.28125 -122.0703125 109.28125 -121.91796875 106.91015625 C-119.98597229 100.91829627 -115.80780251 95.90290734 -111.2578125 91.65625 C-106.87016607 89.76353978 -102.76856487 89.30722207 -98.0703125 90.28125 C-86.15729704 97.13277703 -78.58198146 109.54639125 -72.0703125 121.28125 C-72.0703125 121.94125 -72.0703125 122.60125 -72.0703125 123.28125 C-71.4103125 123.28125 -70.7503125 123.28125 -70.0703125 123.28125 C-69.94061066 122.54705338 -69.81090881 121.81285675 -69.67727661 121.05641174 C-69.11520416 118.48650367 -68.37474546 116.29767013 -67.35888672 113.87866211 C-66.83016968 112.61003578 -66.83016968 112.61003578 -66.29077148 111.31578064 C-65.90606689 110.40590897 -65.5213623 109.49603729 -65.125 108.55859375 C-64.5220813 107.11710716 -64.5220813 107.11710716 -63.90698242 105.64649963 C-62.5906916 102.5021094 -61.26800072 99.36045385 -59.9453125 96.21875 C-59.03224608 94.04056103 -58.11965206 91.86217397 -57.20751953 89.68359375 C-55.36827453 85.29193709 -53.52683665 80.90121059 -51.68359375 76.51123047 C-48.39657912 68.67968728 -45.13085953 60.83933533 -41.86813354 52.99765015 C-40.95247414 50.79845058 -40.03523141 48.59991842 -39.11743164 46.40161133 C-36.41377175 39.9241807 -33.72184546 33.44268259 -31.06640625 26.9453125 C-30.37925537 25.27178711 -30.37925537 25.27178711 -29.67822266 23.56445312 C-28.85078626 21.54716757 -28.02833676 19.52782452 -27.21240234 17.50585938 C-24.31247357 10.45260979 -21.5215519 4.74749266 -15.0703125 0.28125 C-10.22916635 -1.33246538 -4.88419867 -1.69564633 0 0 Z M-10.0703125 56.28125 C-14.09645935 63.86447804 -17.17082788 71.80829784 -20.3203125 79.78125 C-20.87988538 81.19023247 -21.43977861 82.59908776 -22 84.0078125 C-23.36046811 87.43083294 -24.71659003 90.85555532 -26.0703125 94.28125 C-22.08497197 94.28125 -20.72347904 92.78807741 -17.5703125 90.40625 C-14.76403385 88.30154101 -11.98950797 86.22738031 -9.0703125 84.28125 C-6.9443962 75.81004154 -7.9720166 65.98589764 -8.0703125 57.28125 C-8.7303125 56.95125 -9.3903125 56.62125 -10.0703125 56.28125 Z " fill="#075E54" transform="translate(328.0703125,177.71875)"/>
<path d="M0 0 C13.86 0 27.72 0 42 0 C45.49027056 5.23540584 48.84446299 10.28838382 51.98828125 15.6953125 C52.33319611 16.28642822 52.67811096 16.87754395 53.03347778 17.48657227 C53.75876637 18.73012258 54.48285805 19.97437171 55.20578003 21.21929932 C57.07684993 24.44116147 58.95707228 27.65767981 60.8359375 30.875 C61.20019333 31.49931915 61.56444916 32.12363831 61.93974304 32.76687622 C68.74071008 44.52526678 68.74071008 44.52526678 76 56 C76 37.52 76 19.04 76 0 C89.86 0 103.72 0 118 0 C118 38.94 118 77.88 118 118 C103.81 118 89.62 118 75 118 C64.75198797 105.93941441 64.75198797 105.93941441 62.8828125 100.34765625 C60.13392815 92.98393614 56.42150403 86.58314455 52.29037476 79.91738892 C50.54180839 77.07562383 48.85886785 74.1967476 47.16796875 71.3203125 C45.50022243 68.49430981 43.82062836 65.73094255 42 63 C42 81.15 42 99.3 42 118 C28.14 118 14.28 118 0 118 C0 79.06 0 40.12 0 0 Z " fill="#075E54" transform="translate(1169,208)"/>
<path d="M0 0 C13.86 0 27.72 0 42 0 C50.99311751 14.61381596 50.99311751 14.61381596 53.96484375 19.6484375 C54.62033203 20.75703125 55.27582031 21.865625 55.95117188 23.0078125 C56.60666016 24.11898437 57.26214844 25.23015625 57.9375 26.375 C63.58629388 35.94051446 69.28428352 45.47380587 75 55 C75.33 36.85 75.66 18.7 76 0 C89.53 0 103.06 0 117 0 C117 38.94 117 77.88 117 118 C103.14 118 89.28 118 75 118 C71.5254403 112.78816045 68.18067772 107.75564926 65.046875 102.375 C64.70174866 101.78436768 64.35662231 101.19373535 64.0010376 100.58520508 C62.91475869 98.72497157 61.83224053 96.86258521 60.75 95 C60.04323129 93.78760733 59.33620093 92.57536715 58.62890625 91.36328125 C56.41910153 87.5756196 54.20955446 83.78780764 52 80 C47.05 71.585 47.05 71.585 42 63 C41.67 81.15 41.34 99.3 41 118 C27.47 118 13.94 118 0 118 C0 79.06 0 40.12 0 0 Z " fill="#075E54" transform="translate(965,208)"/>
<path d="M0 0 C10.291875 -0.061875 20.58375 -0.12375 31.1875 -0.1875 C34.41039795 -0.21481201 37.6332959 -0.24212402 40.95385742 -0.27026367 C43.5460574 -0.27903632 46.13826156 -0.28667841 48.73046875 -0.29296875 C50.04583618 -0.30831665 51.36120361 -0.32366455 52.71643066 -0.33947754 C65.3357348 -0.34300281 77.43865142 0.88163952 86.93359375 9.8203125 C94.19376641 17.51820866 95.49883471 24.56397061 95.41992188 34.77441406 C95.19168904 41.40779644 94.0656231 45.97534291 89.24609375 50.73046875 C87.54326257 52.2271116 85.79244191 53.61372719 84 55 C83.01 55.99 83.01 55.99 82 57 C82.65226563 57.27972656 83.30453125 57.55945313 83.9765625 57.84765625 C90.92022429 61.03272825 95.83004811 64.17330093 99.02734375 71.28515625 C102.36426992 80.98838395 101.86910824 90.54403289 98 100 C93.84555109 107.71540513 87.9356135 111.99428593 79.91796875 115.140625 C70.39803797 117.94435294 61.22759996 118.26952189 51.3671875 118.1953125 C50.06015869 118.19329834 48.75312988 118.19128418 47.40649414 118.18920898 C42.56262664 118.1788102 37.71880949 118.15088802 32.875 118.125 C16.601875 118.063125 16.601875 118.063125 0 118 C0 79.06 0 40.12 0 0 Z M41 29 C41 33.95 41 38.9 41 44 C42.5675 44.061875 44.135 44.12375 45.75 44.1875 C46.63171875 44.22230469 47.5134375 44.25710937 48.421875 44.29296875 C51.50255778 43.94289116 52.78905957 43.14091064 55 41 C55.92967567 37.87894596 56.2690005 35.88036529 55.3125 32.75 C53.70800772 30.61067696 52.47082857 30.00227614 50 29 C46.97207178 28.74934369 44.04558972 28.91042383 41 29 Z M41 70 C41 75.94 41 81.88 41 88 C49.97292864 88.52192566 49.97292864 88.52192566 58 85 C60.32877362 82.12405164 60.32877362 82.12405164 59.9375 78.5625 C58.81686285 74.30407884 57.74492888 73.21291252 54 71 C49.56787564 69.56255426 45.86462488 70 41 70 Z " fill="#075E54" transform="translate(654,208)"/>
<path d="M0 0 C15.84 0 31.68 0 48 0 C50.65901987 6.64754967 53.19566909 13.24597536 55.51171875 20.0078125 C55.8375444 20.95174866 56.16337006 21.89568481 56.49906921 22.8682251 C57.19954889 24.89771606 57.89903016 26.92755185 58.59759521 28.95770264 C63.60134761 43.49876345 68.63488485 58.02850774 73.79296875 72.515625 C74.17968246 73.60241547 74.56639618 74.68920593 74.96482849 75.80892944 C76.82195566 81.02460005 78.68448183 86.23827448 80.5534668 91.44970703 C81.23107341 93.34924234 81.90856941 95.24881712 82.5859375 97.1484375 C82.88835861 97.98610657 83.19077972 98.82377563 83.50236511 99.68682861 C85.66263881 105.76084565 87.29066138 111.73242505 89 118 C73.82 118 58.64 118 43 118 C40 109 40 109 39 103 C28.77 103 18.54 103 8 103 C7.67 105.64 7.34 108.28 7 111 C6.34 113.31 5.68 115.62 5 118 C-10.18 118 -25.36 118 -41 118 C-38.75000624 107.87502806 -38.75000624 107.87502806 -37.52978516 104.46069336 C-37.11521812 103.28828598 -37.11521812 103.28828598 -36.692276 102.0921936 C-36.39421555 101.26641815 -36.09615509 100.4406427 -35.7890625 99.58984375 C-35.4685643 98.68833588 -35.1480661 97.786828 -34.81785583 96.85800171 C-33.75865451 93.88266037 -32.691896 90.91008994 -31.625 87.9375 C-30.87771391 85.84350717 -30.13089745 83.7493467 -29.38452148 81.6550293 C-27.78425322 77.16770319 -26.18066669 72.68158135 -24.57470703 68.19628906 C-22.10636983 61.30097444 -19.64738824 54.40235386 -17.19012451 47.503088 C-15.14883843 41.77244459 -13.10564501 36.04248084 -11.0625 30.3125 C-10.62262756 29.07869598 -10.18275513 27.84489197 -9.72955322 26.57369995 C-8.47834116 23.06567118 -7.22573679 19.55814297 -5.97265625 16.05078125 C-5.59942734 15.00393158 -5.22619843 13.95708191 -4.84165955 12.87850952 C-4.49567215 11.91095734 -4.14968475 10.94340515 -3.79321289 9.9465332 C-3.34384117 8.68810356 -3.34384117 8.68810356 -2.88539124 7.4042511 C-1.970015 4.91857672 -0.98376411 2.45941028 0 0 Z M23 40 C22.89453857 40.54825439 22.78907715 41.09650879 22.68041992 41.66137695 C18.96229933 60.88948731 18.96229933 60.88948731 16.515625 68.90625 C15.8405839 71.28794156 15.8405839 71.28794156 16 75 C21.28 75 26.56 75 32 75 C31.25943359 71.96425781 31.25943359 71.96425781 30.50390625 68.8671875 C30.02385239 66.89131364 29.54381417 64.91543594 29.06420898 62.93945312 C28.73230113 61.57370479 28.39963079 60.20814151 28.06616211 58.84277344 C27.58503436 56.87223526 27.10671663 54.90103234 26.62890625 52.9296875 C26.34088135 51.74616699 26.05285645 50.56264648 25.75610352 49.34326172 C25.05391672 46.2384035 24.48785383 43.14487747 24 40 C23.67 40 23.34 40 23 40 Z " fill="#075E54" transform="translate(560,208)"/>
<path d="M0 0 C-2.23635981 6.96075981 -4.80342946 13.73060018 -7.5625 20.5 C-7.96146484 21.5003125 -8.36042969 22.500625 -8.77148438 23.53125 C-9.3505957 24.954375 -9.3505957 24.954375 -9.94140625 26.40625 C-10.28888916 27.26541016 -10.63637207 28.12457031 -10.99438477 29.00976562 C-12 31 -12 31 -14 32 C-15.6640625 31.109375 -15.6640625 31.109375 -17.625 29.75 C-25.88192997 24.44724891 -33.07229412 22.91723321 -43 24 C-43.66 24.66 -44.32 25.32 -45 26 C-44.99633595 28.05826877 -44.99633595 28.05826877 -44 30 C-38.82797772 33.31009426 -32.2648726 34.49896157 -26.375 36 C-18.14381054 38.10591501 -11.76554003 40.43369052 -6 47 C-5.29875 47.78375 -4.5975 48.5675 -3.875 49.375 C1.88363742 57.43709239 2.98812733 66.4599369 1.5390625 76.05078125 C-0.98805858 88.70125207 -6.99330414 98.38090656 -17.6875 105.6875 C-33.31919444 114.93828792 -53.63469139 115.2671612 -70.86474609 110.91967773 C-79.52899065 108.48733589 -88.50100905 104.9993273 -96 100 C-93.66737643 92.63014946 -90.8202139 85.55561321 -87.8125 78.4375 C-87.11737305 76.78137695 -87.11737305 76.78137695 -86.40820312 75.09179688 C-85.27506147 72.39328426 -84.1389372 69.69607042 -83 67 C-79.17237952 67 -77.60770295 68.29519312 -74.375 70.3125 C-65.7255008 75.44197492 -58.22138974 78.290241 -48 77 C-47.01 76.34 -46.02 75.68 -45 75 C-44.86559222 72.57080135 -44.86559222 72.57080135 -46 70 C-50.33962227 67.83018887 -54.77372993 66.80202754 -59.47021484 65.62402344 C-70.56096619 62.81073283 -79.88775635 58.89524019 -86.3203125 48.9609375 C-90.91775491 39.60530295 -90.61597555 26.6387793 -87.375 16.875 C-82.41796913 5.53969165 -74.04062329 -2.06700948 -62.80859375 -6.95703125 C-42.10762984 -14.64431548 -18.85165664 -10.53165175 0 0 Z " fill="#075E54" transform="translate(854,216)"/>
<path d="M0 0 C26.07 0 52.14 0 79 0 C79 10.89 79 21.78 79 33 C66.79 33 54.58 33 42 33 C42 36.3 42 39.6 42 43 C52.89 43 63.78 43 75 43 C75 53.23 75 63.46 75 74 C64.11 74 53.22 74 42 74 C42 77.63 42 81.26 42 85 C54.54 85 67.08 85 80 85 C80 95.89 80 106.78 80 118 C53.6 118 27.2 118 0 118 C0 79.06 0 40.12 0 0 Z " fill="#075E54" transform="translate(869,208)"/>
<path d="M0 0 C14.19 0 28.38 0 43 0 C43 38.94 43 77.88 43 118 C28.81 118 14.62 118 0 118 C0 79.06 0 40.12 0 0 Z " fill="#075E54" transform="translate(1104,208)"/>
<path d="M0 0 C5.94 0 11.88 0 18 0 C20.12281498 5.66083995 22.11852247 11.26597325 24 17 C25.65 11.39 27.3 5.78 29 0 C34.94 0 40.88 0 47 0 C48.78171593 7.49319785 50.06799888 15.04730847 51.28710938 22.64892578 C51.62665006 24.76026044 51.97327051 26.87035567 52.3203125 28.98046875 C52.53949007 30.33586843 52.75825478 31.69133495 52.9765625 33.046875 C53.17330566 34.26213867 53.37004883 35.47740234 53.57275391 36.72949219 C54 40 54 40 54 45 C48.39 45 42.78 45 37 45 C36.34 39.06 35.68 33.12 35 27 C33.02 32.94 31.04 38.88 29 45 C25.37 45 21.74 45 18 45 C16.02 39.06 14.04 33.12 12 27 C11.34 32.94 10.68 38.88 10 45 C4.39 45 -1.22 45 -7 45 C-6.24350653 35.519892 -4.57748536 26.23284152 -2.9375 16.875 C-2.65267005 15.23443135 -2.36816222 13.59380674 -2.08398438 11.953125 C-1.39362818 7.96797843 -0.69667901 3.98406651 0 0 Z " fill="#075E54" transform="translate(1413,283)"/>
<path d="M0 0 C6.70987738 3.71872722 10.50225119 8.72550357 12.90625 15.9375 C13.5463505 23.60821255 13.82655704 30.67029327 8.90625 36.9375 C3.95384104 42.24816833 -0.45530912 45.5827184 -7.8515625 46.1484375 C-16.36077084 46.42567988 -22.55376521 45.57678277 -28.90625 39.6875 C-35.00453007 32.96268431 -35.66485365 27.24951005 -35.4375 18.31640625 C-34.69143826 10.98295847 -31.53804273 6.78681972 -25.97265625 2.1640625 C-18.68271691 -2.5948584 -8.1382132 -2.79494191 0 0 Z M-17.09375 16.9375 C-18.52037219 19.79074437 -18.40408868 21.77204549 -18.09375 24.9375 C-16.61758326 27.9078869 -16.61758326 27.9078869 -14.09375 29.9375 C-11.09375 30.77083333 -11.09375 30.77083333 -8.09375 29.9375 C-5.482839 27.98663936 -5.482839 27.98663936 -4.09375 24.9375 C-4.24060388 20.6787375 -4.72196713 18.4951743 -7.09375 14.9375 C-11.39967246 13.30823204 -13.49442641 14.23800731 -17.09375 16.9375 Z " fill="#075E54" transform="translate(1391.09375,283.0625)"/>
<path d="M0 0 C0 5.94 0 11.88 0 18 C-2.31 17.01 -4.62 16.02 -7 15 C-10.71936606 14.81619634 -10.71936606 14.81619634 -14 16 C-16.61721762 18.86258177 -17.02696888 20.31229362 -16.875 24.1875 C-16.22994813 27.30148891 -16.22994813 27.30148891 -13 29 C-7.90512245 29.47174792 -5.19266073 28.87496736 -1 26 C-0.34 26 0.32 26 1 26 C0.67 31.94 0.34 37.88 0 44 C-7.17682951 46.8707318 -14.48142542 47.34189169 -21.8125 44.5 C-27.57983473 41.54293019 -31.515948 36.90358 -34.4375 31.1875 C-36.07299142 21.91971527 -35.24139535 14.36076924 -30.375 6.3125 C-21.85762971 -1.98072897 -11.13859147 -3.71286382 0 0 Z " fill="#075E54" transform="translate(1351,283)"/>
<path d="M0 0 C9 0 9 0 11.5625 1.125 C13.62848726 3.81976599 13.42151163 5.69815888 13 9 C12.34 9.66 11.68 10.32 11 11 C11.99 11.66 12.98 12.32 14 13 C14.375 16.4375 14.375 16.4375 14 20 C13.01 20.99 12.02 21.98 11 23 C7.37 23 3.74 23 0 23 C0 15.41 0 7.82 0 0 Z " fill="#F8FAFA" transform="translate(792,355)"/>
<path d="M0 0 C0.99 0 1.98 0 3 0 C2.67 2.31 2.34 4.62 2 7 C2.99 7 3.98 7 5 7 C5.66 4.69 6.32 2.38 7 0 C7.99 0 8.98 0 10 0 C9.34 2.31 8.68 4.62 8 7 C9.32 7 10.64 7 12 7 C12 7.99 12 8.98 12 10 C10.35 10.33 8.7 10.66 7 11 C6.67 11.99 6.34 12.98 6 14 C7.32 14 8.64 14 10 14 C10 14.99 10 15.98 10 17 C8.02 17 6.04 17 4 17 C3.67 18.98 3.34 20.96 3 23 C1.68 22.67 0.36 22.34 -1 22 C-0.34 20.35 0.32 18.7 1 17 C0.01 17.33 -0.98 17.66 -2 18 C-3.21869929 20.50447516 -3.21869929 20.50447516 -4 23 C-4.99 23 -5.98 23 -7 23 C-6.67 21.35 -6.34 19.7 -6 18 C-7.32 17.67 -8.64 17.34 -10 17 C-9.505 15.515 -9.505 15.515 -9 14 C-7.35 14 -5.7 14 -4 14 C-4 13.01 -4 12.02 -4 11 C-5.32 10.67 -6.64 10.34 -8 10 C-7.67 9.01 -7.34 8.02 -7 7 C-5.35 7 -3.7 7 -2 7 C-1.34 4.69 -0.68 2.38 0 0 Z " fill="#E1EBEA" transform="translate(613,355)"/>
<path d="M0 0 C1.32 0 2.64 0 4 0 C4.67305018 1.60149886 5.33822227 3.20631029 6 4.8125 C6.37125 5.70582031 6.7425 6.59914063 7.125 7.51953125 C8 10 8 10 8 13 C8.66 13 9.32 13 10 13 C10.20496094 12.30132812 10.40992188 11.60265625 10.62109375 10.8828125 C10.89050781 9.97273438 11.15992188 9.06265625 11.4375 8.125 C11.70433594 7.22007812 11.97117187 6.31515625 12.24609375 5.3828125 C13 3 13 3 14 1 C14.66 1 15.32 1 16 1 C16.67354499 2.43429001 17.33859701 3.87257057 18 5.3125 C18.556875 6.51326172 18.556875 6.51326172 19.125 7.73828125 C20 10 20 10 20 13 C20.66 13 21.32 13 22 13 C22.103125 12.34 22.20625 11.68 22.3125 11 C23.19213564 7.16158991 24.56969896 3.66903309 26 0 C27.32 0 28.64 0 30 0 C27.60309494 7.44302097 24.84737559 14.71837152 22 22 C19.1673866 20.5836933 18.98292167 18.85502707 17.875 15.9375 C17.52179688 15.01839844 17.16859375 14.09929687 16.8046875 13.15234375 C16.53914063 12.44207031 16.27359375 11.73179687 16 11 C15.34 11 14.68 11 14 11 C13.73445313 11.71027344 13.46890625 12.42054688 13.1953125 13.15234375 C12.66550781 14.53099609 12.66550781 14.53099609 12.125 15.9375 C11.77695313 16.85402344 11.42890625 17.77054687 11.0703125 18.71484375 C10 21 10 21 8 22 C6.66399387 18.52185372 5.33164358 15.04231861 4 11.5625 C3.6184375 10.56927734 3.236875 9.57605469 2.84375 8.55273438 C2.4828125 7.60849609 2.121875 6.66425781 1.75 5.69140625 C1.41484375 4.81685791 1.0796875 3.94230957 0.734375 3.04125977 C0 1 0 1 0 0 Z " fill="#E7EFEE" transform="translate(1106,355)"/>
<path d="M0 0 C2 1.0625 2 1.0625 3 3 C3.39289183 6.0940232 3.62437655 8.04461765 3 11 C0.30036482 14.27228507 -1.29791641 14.91223955 -5.5 15.4375 C-9.16649798 14.97918775 -11.08686461 14.22769177 -14 12 C-15.42041821 9.15916359 -15.31452272 7.14522722 -15 4 C-10.71294199 -1.4696947 -6.31496408 -1.43402309 0 0 Z " fill="#075E54" transform="translate(1309,314)"/>
<path d="M0 0 C0.99 0 1.98 0 3 0 C3 7.26 3 14.52 3 22 C-1.20933513 19.47439892 -4.25551292 17.11235548 -7.8125 13.8125 C-8.31458984 13.34908203 -8.81667969 12.88566406 -9.33398438 12.40820312 C-10.55956829 11.27599703 -11.78029342 10.13853521 -13 9 C-13.33 13.62 -13.66 18.24 -14 23 C-14.99 23 -15.98 23 -17 23 C-17 15.74 -17 8.48 -17 1 C-7.85082873 7.86187845 -7.85082873 7.86187845 -5.0625 10.25 C-4.49660156 10.72953125 -3.93070313 11.2090625 -3.34765625 11.703125 C-2 13 -2 13 -1 15 C-0.67 10.05 -0.34 5.1 0 0 Z " fill="#F8FAFA" transform="translate(901,355)"/>
<path d="M0 0 C2.50437051 2.25235839 3.85064107 4.40210898 5.26171875 7.44921875 C5.85629883 8.72055664 5.85629883 8.72055664 6.46289062 10.01757812 C6.86701172 10.89865234 7.27113281 11.77972656 7.6875 12.6875 C8.10322266 13.58017578 8.51894531 14.47285156 8.94726562 15.39257812 C9.97071673 17.59240981 10.98803204 19.79486819 12 22 C10.35 21.67 8.7 21.34 7 21 C6.505 18.525 6.505 18.525 6 16 C1.05 16.495 1.05 16.495 -4 17 C-4.99 19.475 -4.99 19.475 -6 22 C-7.32 22 -8.64 22 -10 22 C-8.4719611 16.90117545 -6.28963144 12.34334341 -3.875 7.625 C-3.50246094 6.88894531 -3.12992188 6.15289062 -2.74609375 5.39453125 C-1.8343878 3.59449642 -0.91770068 1.79698598 0 0 Z " fill="#EFF4F4" transform="translate(1288,356)"/>
<path d="M0 0 C2.50437051 2.25235839 3.85064107 4.40210898 5.26171875 7.44921875 C5.85629883 8.72055664 5.85629883 8.72055664 6.46289062 10.01757812 C6.86701172 10.89865234 7.27113281 11.77972656 7.6875 12.6875 C8.10322266 13.58017578 8.51894531 14.47285156 8.94726562 15.39257812 C9.97071673 17.59240981 10.98803204 19.79486819 12 22 C10.35 21.67 8.7 21.34 7 21 C6.505 18.525 6.505 18.525 6 16 C1.05 16.495 1.05 16.495 -4 17 C-4.99 19.475 -4.99 19.475 -6 22 C-7.32 22 -8.64 22 -10 22 C-8.4719611 16.90117545 -6.28963144 12.34334341 -3.875 7.625 C-3.50246094 6.88894531 -3.12992188 6.15289062 -2.74609375 5.39453125 C-1.8343878 3.59449642 -0.91770068 1.79698598 0 0 Z " fill="#EFF4F4" transform="translate(1196,356)"/>
<path d="M0 0 C2.50437051 2.25235839 3.85064107 4.40210898 5.26171875 7.44921875 C5.85629883 8.72055664 5.85629883 8.72055664 6.46289062 10.01757812 C6.86701172 10.89865234 7.27113281 11.77972656 7.6875 12.6875 C8.10322266 13.58017578 8.51894531 14.47285156 8.94726562 15.39257812 C9.97071673 17.59240981 10.98803204 19.79486819 12 22 C10.35 21.67 8.7 21.34 7 21 C6.505 18.525 6.505 18.525 6 16 C1.05 16.495 1.05 16.495 -4 17 C-4.99 19.475 -4.99 19.475 -6 22 C-7.32 22 -8.64 22 -10 22 C-8.4719611 16.90117545 -6.28963144 12.34334341 -3.875 7.625 C-3.50246094 6.88894531 -3.12992188 6.15289062 -2.74609375 5.39453125 C-1.8343878 3.59449642 -0.91770068 1.79698598 0 0 Z " fill="#EFF4F4" transform="translate(1059,356)"/>
<path d="M0 0 C2.50437051 2.25235839 3.85064107 4.40210898 5.26171875 7.44921875 C5.85629883 8.72055664 5.85629883 8.72055664 6.46289062 10.01757812 C6.86701172 10.89865234 7.27113281 11.77972656 7.6875 12.6875 C8.10322266 13.58017578 8.51894531 14.47285156 8.94726562 15.39257812 C9.97071673 17.59240981 10.98803204 19.79486819 12 22 C10.35 21.67 8.7 21.34 7 21 C6.505 18.525 6.505 18.525 6 16 C1.05 16.495 1.05 16.495 -4 17 C-4.99 19.475 -4.99 19.475 -6 22 C-7.32 22 -8.64 22 -10 22 C-8.4719611 16.90117545 -6.28963144 12.34334341 -3.875 7.625 C-3.50246094 6.88894531 -3.12992188 6.15289062 -2.74609375 5.39453125 C-1.8343878 3.59449642 -0.91770068 1.79698598 0 0 Z " fill="#EFF4F4" transform="translate(765,356)"/>
<path d="M0 0 C9 0 9 0 11.5625 1.0625 C13.81151056 4.09377511 13.52134619 6.35057669 13 10 C11.375 11.9375 11.375 11.9375 9 13 C5.75 13.1875 5.75 13.1875 3 13 C3 16.3 3 19.6 3 23 C2.01 23 1.02 23 0 23 C0 15.41 0 7.82 0 0 Z " fill="#FBFCFC" transform="translate(1345,355)"/>
<path d="M0 0 C9 0 9 0 11.5625 1.0625 C13.81151056 4.09377511 13.52134619 6.35057669 13 10 C11.375 11.9375 11.375 11.9375 9 13 C5.75 13.1875 5.75 13.1875 3 13 C3 16.3 3 19.6 3 23 C2.01 23 1.02 23 0 23 C0 15.41 0 7.82 0 0 Z " fill="#FBFCFC" transform="translate(1315,355)"/>
<path d="M0 0 C0.99 0 1.98 0 3 0 C3 2.97 3 5.94 3 9 C6.96 9 10.92 9 15 9 C15 6.03 15 3.06 15 0 C15.99 0 16.98 0 18 0 C18 7.59 18 15.18 18 23 C17.01 23 16.02 23 15 23 C15 19.37 15 15.74 15 12 C11.04 12 7.08 12 3 12 C3 15.63 3 19.26 3 23 C2.01 23 1.02 23 0 23 C0 15.41 0 7.82 0 0 Z " fill="#FFFFFF" transform="translate(1152,355)"/>
<path d="M0 0 C0.66 1.32 1.32 2.64 2 4 C-0.66666667 4 -3.33333333 4 -6 4 C-5.80698728 5.93398669 -5.80698728 5.93398669 -5 8 C-3.14775093 9.3408517 -3.14775093 9.3408517 -0.9375 10.375 C1.2421875 11.640625 1.2421875 11.640625 3 13 C3.6875 16.125 3.6875 16.125 3 19 C1.45493534 21.03667615 0.27853844 21.86073078 -2 23 C-7.3495935 23.45528455 -7.3495935 23.45528455 -9.875 21.6875 C-11 20 -11 20 -11 17 C-10.01 17 -9.02 17 -8 17 C-7.67 17.66 -7.34 18.32 -7 19 C-5.35 19 -3.7 19 -2 19 C-1.67 17.68 -1.34 16.36 -1 15 C-1.63808594 14.57847656 -2.27617188 14.15695312 -2.93359375 13.72265625 C-3.75988281 13.17480469 -4.58617187 12.62695312 -5.4375 12.0625 C-6.26121094 11.51722656 -7.08492187 10.97195313 -7.93359375 10.41015625 C-10 9 -10 9 -11 8 C-11.28417861 5.30030316 -11.32477191 3.58864909 -10 1.1875 C-6.76011038 -0.73618446 -3.7174181 -0.18282384 0 0 Z " fill="#EBF2F1" transform="translate(1261,355)"/>
<path d="M0 0 C0.66 1.32 1.32 2.64 2 4 C-0.66666667 4 -3.33333333 4 -6 4 C-5.80698728 5.93398669 -5.80698728 5.93398669 -5 8 C-3.14775093 9.3408517 -3.14775093 9.3408517 -0.9375 10.375 C1.2421875 11.640625 1.2421875 11.640625 3 13 C3.6875 16.125 3.6875 16.125 3 19 C1.45493534 21.03667615 0.27853844 21.86073078 -2 23 C-7.3495935 23.45528455 -7.3495935 23.45528455 -9.875 21.6875 C-11 20 -11 20 -11 17 C-10.01 17 -9.02 17 -8 17 C-7.67 17.66 -7.34 18.32 -7 19 C-5.35 19 -3.7 19 -2 19 C-1.67 17.68 -1.34 16.36 -1 15 C-1.63808594 14.57847656 -2.27617188 14.15695312 -2.93359375 13.72265625 C-3.75988281 13.17480469 -4.58617187 12.62695312 -5.4375 12.0625 C-6.26121094 11.51722656 -7.08492187 10.97195313 -7.93359375 10.41015625 C-10 9 -10 9 -11 8 C-11.28417861 5.30030316 -11.32477191 3.58864909 -10 1.1875 C-6.76011038 -0.73618446 -3.7174181 -0.18282384 0 0 Z " fill="#EBF2F1" transform="translate(932,355)"/>
<path d="M0 0 C0.66 1.32 1.32 2.64 2 4 C-0.66666667 4 -3.33333333 4 -6 4 C-5.80698728 5.93398669 -5.80698728 5.93398669 -5 8 C-3.14775093 9.3408517 -3.14775093 9.3408517 -0.9375 10.375 C1.2421875 11.640625 1.2421875 11.640625 3 13 C3.6875 16.125 3.6875 16.125 3 19 C1.45493534 21.03667615 0.27853844 21.86073078 -2 23 C-7.3495935 23.45528455 -7.3495935 23.45528455 -9.875 21.6875 C-11 20 -11 20 -11 17 C-10.01 17 -9.02 17 -8 17 C-7.67 17.66 -7.34 18.32 -7 19 C-5.35 19 -3.7 19 -2 19 C-1.67 17.68 -1.34 16.36 -1 15 C-1.63808594 14.57847656 -2.27617188 14.15695312 -2.93359375 13.72265625 C-3.75988281 13.17480469 -4.58617187 12.62695312 -5.4375 12.0625 C-6.26121094 11.51722656 -7.08492187 10.97195313 -7.93359375 10.41015625 C-10 9 -10 9 -11 8 C-11.28417861 5.30030316 -11.32477191 3.58864909 -10 1.1875 C-6.76011038 -0.73618446 -3.7174181 -0.18282384 0 0 Z " fill="#EBF2F1" transform="translate(833,355)"/>
<path d="M0 0 C0.66 1.32 1.32 2.64 2 4 C-0.66666667 4 -3.33333333 4 -6 4 C-5.80698728 5.93398669 -5.80698728 5.93398669 -5 8 C-3.14775093 9.3408517 -3.14775093 9.3408517 -0.9375 10.375 C1.2421875 11.640625 1.2421875 11.640625 3 13 C3.6875 16.125 3.6875 16.125 3 19 C1.45493534 21.03667615 0.27853844 21.86073078 -2 23 C-7.3495935 23.45528455 -7.3495935 23.45528455 -9.875 21.6875 C-11 20 -11 20 -11 17 C-10.01 17 -9.02 17 -8 17 C-7.67 17.66 -7.34 18.32 -7 19 C-5.35 19 -3.7 19 -2 19 C-1.67 17.68 -1.34 16.36 -1 15 C-1.63808594 14.57847656 -2.27617188 14.15695312 -2.93359375 13.72265625 C-3.75988281 13.17480469 -4.58617187 12.62695312 -5.4375 12.0625 C-6.26121094 11.51722656 -7.08492187 10.97195313 -7.93359375 10.41015625 C-10 9 -10 9 -11 8 C-11.28417861 5.30030316 -11.32477191 3.58864909 -10 1.1875 C-6.76011038 -0.73618446 -3.7174181 -0.18282384 0 0 Z " fill="#EBF2F1" transform="translate(685,355)"/>
<path d="M0 0 C3.96 0 7.92 0 12 0 C12 0.99 12 1.98 12 3 C9.03 3 6.06 3 3 3 C3 4.98 3 6.96 3 9 C5.97 9 8.94 9 12 9 C12 9.99 12 10.98 12 12 C9.03 12 6.06 12 3 12 C3 14.64 3 17.28 3 20 C5.97 20 8.94 20 12 20 C12 20.99 12 21.98 12 23 C8.04 23 4.08 23 0 23 C0 15.41 0 7.82 0 0 Z " fill="#FFFFFF" transform="translate(854,355)"/>
<path d="M0 0 C1.32 0 2.64 0 4 0 C4.83764268 1.95649397 5.66999059 3.91525556 6.5 5.875 C7.19609375 7.51082031 7.19609375 7.51082031 7.90625 9.1796875 C9 12 9 12 9 14 C9.66 14 10.32 14 11 14 C11.0825 13.360625 11.165 12.72125 11.25 12.0625 C12.29520372 7.79458483 14.14091826 3.96892333 16 0 C17.32 0.33 18.64 0.66 20 1 C17.03 7.93 14.06 14.86 11 22 C10.34 22 9.68 22 9 22 C7.49394598 18.71106997 5.99619468 15.41842554 4.5 12.125 C4.07074219 11.18785156 3.64148438 10.25070312 3.19921875 9.28515625 C2.79316406 8.38925781 2.38710938 7.49335938 1.96875 6.5703125 C1.59169922 5.74289551 1.21464844 4.91547852 0.82617188 4.06298828 C0 2 0 2 0 0 Z " fill="#ECF3F2" transform="translate(995,355)"/>
<path d="M0 0 C5.28 0 10.56 0 16 0 C16 0.99 16 1.98 16 3 C14.02 3 12.04 3 10 3 C10 9.6 10 16.2 10 23 C8.68 23 7.36 23 6 23 C6 16.4 6 9.8 6 3 C4.02 3 2.04 3 0 3 C0 2.01 0 1.02 0 0 Z " fill="#EEF4F3" transform="translate(1219,355)"/>
<path d="M0 0 C5.28 0 10.56 0 16 0 C16 0.99 16 1.98 16 3 C14.02 3 12.04 3 10 3 C10 9.6 10 16.2 10 23 C8.68 23 7.36 23 6 23 C6 16.4 6 9.8 6 3 C4.02 3 2.04 3 0 3 C0 2.01 0 1.02 0 0 Z " fill="#EEF4F3" transform="translate(703,355)"/>
<path d="M0 0 C2.31 0 4.62 0 7 0 C7 7.59 7 15.18 7 23 C6.01 23 5.02 23 4 23 C4 16.4 4 9.8 4 3 C2.35 3 0.7 3 -1 3 C-0.67 2.01 -0.34 1.02 0 0 Z " fill="#F4F8F7" transform="translate(645,355)"/>
<path d="M0 0 C0.99 0 1.98 0 3 0 C3 7.59 3 15.18 3 23 C2.01 23 1.02 23 0 23 C0 15.41 0 7.82 0 0 Z " fill="#FFFFFF" transform="translate(1030,355)"/>
<path d="M0 0 C0.99 0 1.98 0 3 0 C3 7.59 3 15.18 3 23 C2.01 23 1.02 23 0 23 C0 15.41 0 7.82 0 0 Z " fill="#FFFFFF" transform="translate(953,355)"/>
<path d="M0 0 C2.875 -0.125 2.875 -0.125 6 0 C6.66 0.66 7.32 1.32 8 2 C7.625 4.125 7.625 4.125 7 6 C4.69 6.33 2.38 6.66 0 7 C0 4.69 0 2.38 0 0 Z " fill="#11645B" transform="translate(795,368)"/>
<path d="M0 0 C1.98 0 3.96 0 6 0 C6.625 2.375 6.625 2.375 7 5 C5 7 5 7 2.375 7.125 C1.59125 7.08375 0.8075 7.0425 0 7 C0 4.69 0 2.38 0 0 Z " fill="#1A6A61" transform="translate(795,358)"/>
<path d="M0 0 C2.97 0.495 2.97 0.495 6 1 C6.38218767 2.65614657 6.71395102 4.32457024 7 6 C6 7 6 7 2.9375 7.0625 C1.4834375 7.0315625 1.4834375 7.0315625 0 7 C0 4.69 0 2.38 0 0 Z " fill="#17685F" transform="translate(1348,358)"/>
<path d="M0 0 C2.97 0.495 2.97 0.495 6 1 C6.38218767 2.65614657 6.71395102 4.32457024 7 6 C6 7 6 7 2.9375 7.0625 C1.4834375 7.0315625 1.4834375 7.0315625 0 7 C0 4.69 0 2.38 0 0 Z " fill="#17685F" transform="translate(1318,358)"/>
<path d="M0 0 C1.89213369 2.38573379 3.02391783 4.07175348 4 7 C2.02 7 0.04 7 -2 7 C-1.42415568 4.61435923 -0.77772405 2.33317216 0 0 Z " fill="#216F66" transform="translate(1288,362)"/>
<path d="M0 0 C1.89213369 2.38573379 3.02391783 4.07175348 4 7 C2.02 7 0.04 7 -2 7 C-1.42415568 4.61435923 -0.77772405 2.33317216 0 0 Z " fill="#216F66" transform="translate(1196,362)"/>
<path d="M0 0 C1.89213369 2.38573379 3.02391783 4.07175348 4 7 C2.02 7 0.04 7 -2 7 C-1.42415568 4.61435923 -0.77772405 2.33317216 0 0 Z " fill="#216F66" transform="translate(1059,362)"/>
<path d="M0 0 C1.89213369 2.38573379 3.02391783 4.07175348 4 7 C2.02 7 0.04 7 -2 7 C-1.42415568 4.61435923 -0.77772405 2.33317216 0 0 Z " fill="#216F66" transform="translate(765,362)"/>
<path d="M0 0 C0.99 0 1.98 0 3 0 C2.67 2.31 2.34 4.62 2 7 C1.01 6.34 0.02 5.68 -1 5 C-0.67 3.35 -0.34 1.7 0 0 Z " fill="#D3E2E0" transform="translate(613,355)"/>
</svg>
